PathFileType	4	(X/Y/Z)	..\data\2014048\dynamic\2014048_C4_01.trc
DataRate	CameraRate	NumFrames	NumMarkers	Units	OrigDataRate	OrigDataStartFrame	OrigNumFrames
100.000000	100.000000	4	52	mm	100.000000	162	186
Frame#	Time	L_IAS			L_IPS			R_IPS			R_IAS			L_FTC			L_FLE			L_FME			L_FAX			L_TTC			L_FAL			L_TAM			L_FCC			L_FM1			L_FM2			L_FM5			R_FTC			R_FLE			R_FME			R_FAX			R_TTC			R_FAL			R_TAM			R_FCC			R_FM1			R_FM2			R_FM5			CV7			TV10			SXS			SJN			L_SIA			L_SRS			L_SAA			L_SAE			L_HLE			L_HME			L_UOA			L_RSP			L_UHE			L_HM2			L_HM5			R_SIA			R_SRS			R_SAA			R_SAE			R_HLE			R_HME			R_UOA			R_RSP			R_UHE			R_HM2			R_HM5			
		X1	Y1	Z1	X2	Y2	Z2	X3	Y3	Z3	X4	Y4	Z4	X5	Y5	Z5	X6	Y6	Z6	X7	Y7	Z7	X8	Y8	Z8	X9	Y9	Z9	X10	Y10	Z10	X11	Y11	Z11	X12	Y12	Z12	X13	Y13	Z13	X14	Y14	Z14	X15	Y15	Z15	X16	Y16	Z16	X17	Y17	Z17	X18	Y18	Z18	X19	Y19	Z19	X20	Y20	Z20	X21	Y21	Z21	X22	Y22	Z22	X23	Y23	Z23	X24	Y24	Z24	X25	Y25	Z25	X26	Y26	Z26	X27	Y27	Z27	X28	Y28	Z28	X29	Y29	Z29	X30	Y30	Z30	X31	Y31	Z31	X32	Y32	Z32	X33	Y33	Z33	X34	Y34	Z34	X35	Y35	Z35	X36	Y36	Z36	X37	Y37	Z37	X38	Y38	Z38	X39	Y39	Z39	X40	Y40	Z40	X41	Y41	Z41	X42	Y42	Z42	X43	Y43	Z43	X44	Y44	Z44	X45	Y45	Z45	X46	Y46	Z46	X47	Y47	Z47	X48	Y48	Z48	X49	Y49	Z49	X50	Y50	Z50	X51	Y51	Z51	X52	Y52	Z52	

163	1.62	1493.871459960938	896.460632324219	-352.9833068847657	1288.395263671875	940.4941406250002	-295.0867309570313	1290.059326171875	943.0541992187502	-188.2556304931641	1491.145629882813	892.5947875976565	-114.1690902709961	1421.541625976563	879.062438964844	-421.797576904297	1564.890625	474.9633178710939	-398.449676513672	1584.950439453125	470.7706298828126	-268.6789550781251	1546.655883789063	416.3850097656251	-401.9573669433595	1602.632446289063	401.548065185547	-349.4755859375001	1428.42431640625	117.282943725586	-369.5956726074219	1469.079956054688	124.8683700561524	-289.5763854980469	1378.104614257813	85.33946228027345	-308.8671569824219	1559.48779296875	33.6119728088379	-320.9112243652344	1555.386596679688	39.87850952148438	-366.6148071289063	1495.4501953125	35.0317726135254	-404.9742126464845	1408.346313476563	867.7125244140627	-41.76498794555665	1388.367065429688	440.4812927246095	-111.6794738769532	1388.732177734375	446.3345031738282	-243.7141571044922	1371.4501953125	386.1295471191407	-110.8940353393555	1423.062744140625	381.5246276855469	-171.2252960205078	1325.199462890625	61.57410049438478	-148.0133209228516	1337.190673828125	86.41584777832033	-234.1960754394532	1275.095092773438	23.36819648742676	-196.6352844238282	1454.274169921875	20.08570861816407	-225.3045043945313	1459.171020507813	32.52803039550782	-172.66943359375	1412.690185546875	20.9842586517334	-127.3751754760742	1338.89013671875	1401.300903320313	-241.2359771728516	1291.374145507813	1118.97119140625	-238.2192382812501	1501.780151367188	1093.619995117188	-238.8406982421876	1452.641845703125	1318.437133789063	-246.5494079589844	1260.20947265625	1179.9599609375	-304.7493286132813	1291.885375976563	1319.8564453125	-318.6499633789063	1328.395629882813	1322.819946289063	-397.170135498047	1376.567749023438	1327.405883789063	-409.5530395507814	1315.671142578125	1016.818115234375	-457.8431701660157	1308.748413085938	1010.628173828125	-375.5716247558594	1294.775268554688	995.1372680664065	-417.2022399902345	1399.783203125	783.141296386719	-439.7525939941407	1335.296997070313	788.363464355469	-485.8042907714845	1406.5302734375	690.9305419921876	-440.3965454101564	1323.712890625	709.4031372070314	-487.3672180175782	1278.496337890625	1177.053466796875	-141.1999816894532	1297.385131835938	1321.74609375	-151.0839080810547	1350.347290039063	1330.050903320313	-79.42111206054689	1399.363037109375	1330.04541015625	-66.0687713623047	1428.311645507813	1022.559814453125	16.83207893371582	1408.070434570313	1001.0771484375	-59.70493316650392	1408.789916992188	995.1629028320315	-10.04204273223877	1599.445190429688	843.2090454101565	5.022738933563233	1533.398315429688	819.5190429687502	49.73737716674806	1648.101806640625	768.611755371094	18.678373336792	1560.39208984375	749.4800415039064	60.41870117187501	
164	1.63	1502.515502929688	896.0360107421877	-353.4635314941407	1296.614624023438	939.7913208007815	-295.7152099609376	1298.198852539063	942.3950195312502	-189.0732421875	1499.148681640625	891.6203613281252	-114.4473114013672	1430.217651367188	878.5718383789065	-422.328582763672	1575.157958984375	474.499481201172	-397.7446289062501	1593.229736328125	470.2238159179689	-267.7231445312501	1559.209228515625	414.675506591797	-401.6614990234376	1614.671997070313	402.2572631835939	-348.2616882324219	1458.562622070313	109.0144424438477	-371.3006591796876	1497.56494140625	119.0021514892578	-290.6219177246094	1409.527954101563	74.41124725341798	-311.3058776855469	1593.53173828125	33.4491081237793	-320.3914489746094	1589.734985351563	39.51719284057618	-366.2347717285157	1530.729858398438	31.13305091857911	-405.6182250976564	1415.746704101563	866.822448730469	-42.46492385864259	1393.0126953125	439.8287963867189	-112.3662719726563	1393.388916015625	445.7465820312501	-244.5072784423829	1375.485473632813	385.6329650878907	-111.5475234985352	1427.050537109375	380.4092102050782	-171.7576751708985	1325.401489257813	61.62144470214845	-148.2311706542969	1337.59375	85.91918945312501	-234.7089538574219	1275.127685546875	23.4234676361084	-196.8224029541016	1454.413940429688	19.93170928955078	-225.3877105712891	1459.256469726563	32.44929885864259	-172.7499237060547	1412.699829101563	21.0019645690918	-127.3934402465821	1347.380981445313	1400.634155273438	-241.2369384765626	1299.808471679688	1118.25732421875	-238.2714538574219	1509.928344726563	1092.518310546875	-238.9318237304688	1461.0078125	1317.66943359375	-246.8283081054688	1268.30615234375	1179.251098632813	-304.3454284667969	1300.012329101563	1319.122436523438	-318.3679809570313	1336.227294921875	1321.972778320313	-397.0076293945314	1384.325561523438	1326.47265625	-409.6272277832032	1321.66796875	1016.239318847656	-457.5083923339845	1315.240356445313	1010.017578125	-375.2221984863282	1300.924194335938	994.723571777344	-416.7820739746095	1404.43798828125	782.0642700195315	-439.976287841797	1339.728393554688	787.7205200195315	-485.6985473632814	1410.581420898438	689.7628173828126	-440.7358703613282	1327.631713867188	708.8409423828126	-487.2733764648439	1287.139404296875	1176.540649414063	-140.8470001220703	1306.099731445313	1321.179077148438	-150.8397064208985	1359.430541992188	1329.390014648438	-79.30358886718751	1408.429809570313	1329.477661132813	-66.19689178466798	1440.479370117188	1022.383239746094	16.89263534545899	1420.269165039063	1000.710571289063	-59.6476516723633	1421.294189453125	994.7695922851565	-9.983159065246584	1614.310424804688	845.723571777344	4.328958034515382	1549.325805664063	821.0931396484377	49.2568817138672	1664.262084960938	772.0438232421877	17.90770339965821	1577.034545898438	751.4257202148439	59.83242416381837	
165	1.64	1511.2373046875	895.5469360351565	-354.0310974121094	1304.939331054688	938.953552246094	-296.4131774902344	1306.3203125	941.600769042969	-189.9730529785157	1507.15771484375	890.6143798828127	-114.7921600341797	1438.894653320313	877.9126586914065	-422.8544006347657	1584.663452148438	473.6505737304689	-397.0655212402345	1600.761596679688	469.1448059082032	-266.8078308105469	1571.10888671875	412.8363342285157	-401.4183044433595	1626.006958007813	402.6772766113282	-347.1201477050782	1488.876708984375	101.5114135742188	-373.0668029785157	1526.081420898438	113.7438354492188	-291.7255249023438	1441.391845703125	64.19874572753908	-313.8099365234376	1627.275146484375	34.2409782409668	-319.8614807128907	1623.816284179688	40.18293762207032	-365.8365783691407	1565.997192382813	28.36785316467286	-406.2523803710939	1423.153564453125	865.8485107421877	-43.24627304077149	1397.924072265625	439.1005249023439	-113.1250457763672	1398.421997070313	445.0559082031251	-245.3643341064454	1379.787719726563	385.0622558593751	-112.2654266357422	1431.276123046875	379.1770019531251	-172.3456115722657	1325.630981445313	61.68707656860353	-148.4795837402344	1338.051391601563	85.34647369384767	-235.3024597167969	1275.174194335938	23.53424263000489	-197.035629272461	1454.569091796875	19.756986618042	-225.4930267333985	1459.344848632813	32.35122680664063	-172.8452301025391	1412.702514648438	21.03014564514161	-127.4265441894532	1355.944458007813	1399.856567382813	-241.2970123291016	1308.241333007813	1117.450317382813	-238.4114227294922	1518.1103515625	1091.249633789063	-239.0984802246094	1469.44580078125	1316.770874023438	-247.1477813720704	1276.464477539063	1178.479736328125	-304.0289306640626	1308.232543945313	1318.308715820313	-318.1771850585938	1344.203735351563	1321.028686523438	-396.9212341308595	1392.205322265625	1325.415283203125	-409.7377929687501	1327.840209960938	1015.55908203125	-457.2049865722657	1321.982543945313	1009.28759765625	-374.8921508789063	1307.26123046875	994.2153930664065	-416.4027099609376	1409.2626953125	780.8872680664065	-440.2867431640626	1344.320922851563	787.001403808594	-485.6806640625001	1414.80126953125	688.5097045898439	-441.2117004394532	1331.734375	708.2131958007814	-487.325897216797	1295.7548828125	1175.971435546875	-140.5720977783203	1314.877685546875	1320.529541015625	-150.662094116211	1368.536010742188	1328.678344726563	-79.21862792968751	1417.538696289063	1328.810913085938	-66.36219787597658	1452.370971679688	1022.041259765625	16.8078899383545	1432.23974609375	1000.213073730469	-59.75606536865236	1433.547973632813	994.2232055664065	-10.08588790893555	1628.890258789063	848.1269531250002	3.46187448501587	1564.972290039063	822.4976806640627	48.50866699218751	1680.1474609375	775.4111328125002	16.94779777526856	1593.380249023438	753.2064208984376	58.90926742553712	
166	1.65	1520.058959960938	894.9961547851565	-354.6442871093751	1313.395385742188	937.978454589844	-297.2037658691407	1314.42041015625	940.6514892578127	-190.9594116210938	1515.166137695313	889.5695800781252	-115.1813659667969	1447.629150390625	877.0996093750002	-423.373992919922	1593.443481445313	472.4382324218751	-396.433319091797	1607.596435546875	467.576873779297	-265.9460144042969	1582.374145507813	410.9137573242189	-401.227264404297	1636.6826171875	402.837127685547	-346.0615844726563	1519.145629882813	94.90915679931642	-374.8555297851563	1554.423950195313	109.2006149291992	-292.8615417480469	1473.43115234375	54.86328506469728	-316.3337707519532	1660.466674804688	36.02000808715821	-319.3002929687501	1657.375732421875	41.90753555297852	-365.3945617675782	1600.977416992188	26.79988288879395	-406.8408508300782	1430.577758789063	864.7805786132815	-44.08551406860352	1403.070068359375	438.2932128906251	-113.9442138671875	1403.846435546875	444.252899169922	-246.2582702636719	1384.328369140625	384.4169921875001	-113.0408935546875	1435.728881835938	377.8343200683594	-172.9830169677735	1325.888427734375	61.77344131469728	-148.7620697021485	1338.562255859375	84.72277832031251	-235.9578704833985	1275.238647460938	23.71487998962403	-197.2812957763672	1454.7294921875	19.56480789184571	-225.6143951416016	1459.429443359375	32.23673629760743	-172.9515686035157	1412.693481445313	21.06761741638184	-127.4793167114258	1364.578247070313	1398.965454101563	-241.4240112304688	1316.671997070313	1116.550537109375	-238.6497802734376	1526.329956054688	1089.85107421875	-239.3497314453126	1477.954345703125	1315.744506835938	-247.5130004882813	1284.689819335938	1177.642333984375	-303.8100280761719	1316.54833984375	1317.41064453125	-318.0865478515626	1352.32421875	1319.988037109375	-396.919403076172	1400.20556640625	1324.241455078125	-409.8921203613282	1334.195922851563	1014.781127929688	-456.9382324218751	1328.97900390625	1008.449890136719	-374.5899353027344	1313.792724609375	993.6187744140627	-416.0698242187501	1414.265380859375	779.615173339844	-440.6915588378907	1349.069702148438	786.207214355469	-485.7450256347657	1419.199340820313	687.1755371093751	-441.8209533691407	1336.019287109375	707.5183105468751	-487.5041503906251	1304.332153320313	1175.346435546875	-140.3882751464844	1323.712524414063	1319.793579101563	-150.5599060058594	1377.658569335938	1327.914794921875	-79.18131256103517	1426.68359375	1328.048950195313	-66.57740020751955	1463.990112304688	1021.532836914063	16.58036804199219	1443.989013671875	999.5806274414065	-60.02750778198244	1445.550170898438	993.5179443359377	-10.34269046783447	1643.170654296875	850.398376464844	2.408571481704712	1580.28369140625	823.7251586914065	47.49934768676759	1695.730224609375	778.6790161132815	15.77939033508301	1609.410888671875	754.8149414062501	57.66229629516603	
